<svg xmlns="http://www.w3.org/2000/svg" viewBox="0 0 56 56" width="512" height="512">
  <rect width="56" height="56" rx="15" fill="#05050d"/>
  <!-- 4-zackige Sterne in den Ecken (R=3.5, r=1.3) -->
  <path d="M9 5.5 L9.9 8.1 L12.5 9 L9.9 9.9 L9 12.5 L8.1 9.9 L5.5 9 L8.1 8.1 Z"  fill="rgba(255,255,255,0.55)"/>
  <path d="M47 5.5 L47.9 8.1 L50.5 9 L47.9 9.9 L47 12.5 L46.1 9.9 L43.5 9 L46.1 8.1 Z" fill="rgba(255,255,255,0.55)"/>
  <path d="M9 43.5 L9.9 46.1 L12.5 47 L9.9 47.9 L9 50.5 L8.1 47.9 L5.5 47 L8.1 46.1 Z" fill="rgba(255,255,255,0.55)"/>
  <path d="M47 43.5 L47.9 46.1 L50.5 47 L47.9 47.9 L47 50.5 L46.1 47.9 L43.5 47 L46.1 46.1 Z" fill="rgba(255,255,255,0.55)"/>
  <!-- "0" vertikal und horizontal zentriert -->
  <text x="28" y="28" text-anchor="middle" dominant-baseline="central"
        font-family="-apple-system,'SF Pro Display','Helvetica Neue',Arial,sans-serif"
        font-size="28" font-weight="700" fill="white" letter-spacing="-1">0</text>
</svg>
